<svg width="40" height="20" viewBox="0 0 40 20" fill="none" xmlns="http://www.w3.org/2000/svg">
<rect width="40" height="20" rx="6" fill="#FDE68A"/>
<path d="M14.0028 5.27273V14H12.7926L8.35653 7.59943H8.27557V14H6.95881V5.27273H8.17756L12.6179 11.6818H12.6989V5.27273H14.0028ZM15.9237 14V5.27273H21.3952V6.40625H17.2404V9.06534H21.1097V10.1946H17.2404V12.8665H21.4464V14H15.9237ZM24.8629 14L22.4425 5.27273H23.8274L25.5277 12.0312H25.6087L27.3771 5.27273H28.7493L30.5178 12.0355H30.5987L32.2947 5.27273H33.6839L31.2592 14H29.9339L28.0973 7.46307H28.0291L26.1925 14H24.8629Z" fill="black"/>
</svg>
