<svg width="234" height="52" viewBox="0 0 234 52" fill="none" xmlns="http://www.w3.org/2000/svg">
<rect width="234" height="52" rx="8" fill="#F6FFF5"/>
<rect x="0.5" y="0.5" width="233" height="51" rx="7.5" stroke="#424242" stroke-opacity="0.3"/>
<g clip-path="url(#clip0_1_103)">
<path d="M27.625 26C27.625 24.8109 27.9526 23.697 28.5218 22.7433V18.6976H24.4761C22.8704 20.7829 22 23.3245 22 26C22 28.6755 22.8704 31.217 24.4761 33.3024H28.5218V29.2567C27.9526 28.303 27.625 27.1891 27.625 26Z" fill="#FBBD00"/>
<path d="M34 32.375L31.1875 35.1875L34 38C36.6756 38 39.217 37.1296 41.3024 35.5239V31.4825H37.261C36.2989 32.0538 35.1804 32.375 34 32.375Z" fill="#0F9D58"/>
<path d="M28.5218 29.2567L24.4761 33.3024C24.794 33.7153 25.1402 34.1107 25.5147 34.4853C27.7812 36.7517 30.7947 38 34 38V32.375C31.6739 32.375 29.6351 31.1225 28.5218 29.2567Z" fill="#31AA52"/>
<path d="M46 26C46 25.2699 45.9339 24.5385 45.8035 23.8261L45.698 23.2496H34V28.8746H39.6931C39.1402 29.9743 38.2902 30.8715 37.261 31.4826L41.3024 35.524C41.7153 35.2061 42.1106 34.8599 42.4853 34.4853C44.7518 32.2188 46 29.2053 46 26Z" fill="#3C79E6"/>
<path d="M38.5078 21.4922L39.005 21.9893L42.9825 18.0119L42.4853 17.5147C40.2188 15.2482 37.2054 14 34 14L31.1875 16.8125L34 19.625C35.7028 19.625 37.3037 20.2881 38.5078 21.4922Z" fill="#CF2D48"/>
<path d="M34 19.625V14C30.7947 14 27.7812 15.2482 25.5147 17.5147C25.1401 17.8893 24.7939 18.2847 24.476 18.6976L28.5217 22.7433C29.6352 20.8775 31.6739 19.625 34 19.625Z" fill="#EB4132"/>
</g>
<line x1="61.5" y1="14" x2="61.5" y2="36" stroke="#424242" stroke-opacity="0.5"/>
<path d="M83.2894 20.3636C83.2298 19.8598 82.9878 19.4688 82.5636 19.1903C82.1393 18.9119 81.619 18.7727 81.0025 18.7727C80.5517 18.7727 80.1573 18.8456 79.8192 18.9915C79.4845 19.1373 79.2227 19.3378 79.0337 19.593C78.8481 19.8482 78.7553 20.1383 78.7553 20.4631C78.7553 20.7348 78.82 20.9685 78.9492 21.1641C79.0818 21.3563 79.2508 21.517 79.4563 21.6463C79.6618 21.7723 79.8772 21.8767 80.1026 21.9595C80.328 22.0391 80.5352 22.1037 80.7241 22.1534L81.7582 22.4318C82.0233 22.5014 82.3183 22.5975 82.6431 22.7202C82.9712 22.8428 83.2844 23.0102 83.5827 23.2223C83.8844 23.4311 84.1329 23.6996 84.3285 24.0277C84.524 24.3558 84.6218 24.7585 84.6218 25.2358C84.6218 25.786 84.4776 26.2831 84.1893 26.7273C83.9042 27.1714 83.4866 27.5244 82.9364 27.7862C82.3896 28.0481 81.725 28.179 80.9428 28.179C80.2137 28.179 79.5823 28.0613 79.0487 27.826C78.5183 27.5907 78.1007 27.2625 77.7958 26.8416C77.4942 26.4207 77.3235 25.9318 77.2837 25.375H78.5565C78.5896 25.7595 78.7189 26.0777 78.9442 26.3295C79.1729 26.5781 79.4613 26.7637 79.8093 26.8864C80.1606 27.0057 80.5385 27.0653 80.9428 27.0653C81.4135 27.0653 81.8361 26.9891 82.2106 26.8366C82.5851 26.6809 82.8817 26.4654 83.1005 26.1903C83.3192 25.9119 83.4286 25.5871 83.4286 25.2159C83.4286 24.8778 83.3342 24.6027 83.1452 24.3906C82.9563 24.1785 82.7077 24.0062 82.3995 23.8736C82.0913 23.741 81.7582 23.625 81.4002 23.5256L80.1474 23.1676C79.3519 22.9389 78.7222 22.6125 78.2582 22.1882C77.7942 21.764 77.5621 21.2088 77.5621 20.5227C77.5621 19.9527 77.7163 19.4555 78.0245 19.0312C78.3361 18.6037 78.7537 18.2723 79.2773 18.0369C79.8043 17.7983 80.3926 17.679 81.0423 17.679C81.6985 17.679 82.2818 17.7966 82.7923 18.032C83.3027 18.264 83.707 18.5821 84.0053 18.9865C84.3069 19.3909 84.466 19.8499 84.4826 20.3636H83.2894ZM86.4899 28V20.3636H87.6632V28H86.4899ZM87.0865 19.0909C86.8578 19.0909 86.6606 19.013 86.4949 18.8572C86.3324 18.7015 86.2512 18.5142 86.2512 18.2955C86.2512 18.0767 86.3324 17.8894 86.4949 17.7337C86.6606 17.5779 86.8578 17.5 87.0865 17.5C87.3152 17.5 87.5107 17.5779 87.6731 17.7337C87.8388 17.8894 87.9217 18.0767 87.9217 18.2955C87.9217 18.5142 87.8388 18.7015 87.6731 18.8572C87.5107 19.013 87.3152 19.0909 87.0865 19.0909ZM92.8945 31.0227C92.3278 31.0227 91.8406 30.9498 91.4329 30.804C91.0252 30.6615 90.6855 30.4725 90.4137 30.2372C90.1452 30.0052 89.9315 29.7566 89.7724 29.4915L90.707 28.8352C90.8131 28.9744 90.9473 29.1335 91.1097 29.3125C91.2721 29.4948 91.4942 29.6522 91.7759 29.7848C92.061 29.9207 92.4338 29.9886 92.8945 29.9886C93.511 29.9886 94.0198 29.8395 94.4208 29.5412C94.8219 29.2429 95.0224 28.7756 95.0224 28.1392V26.5881H94.9229C94.8368 26.7273 94.7141 26.8996 94.555 27.1051C94.3993 27.3073 94.1739 27.4879 93.8789 27.647C93.5872 27.8028 93.1928 27.8807 92.6957 27.8807C92.0792 27.8807 91.5257 27.7348 91.0352 27.4432C90.5479 27.1515 90.1618 26.7273 89.8768 26.1705C89.5951 25.6136 89.4542 24.9375 89.4542 24.142C89.4542 23.3598 89.5917 22.6787 89.8668 22.0987C90.1419 21.5154 90.5247 21.0646 91.0153 20.7464C91.5058 20.425 92.0726 20.2642 92.7156 20.2642C93.2127 20.2642 93.6071 20.3471 93.8988 20.5128C94.1938 20.6752 94.4192 20.8608 94.5749 21.0696C94.734 21.2751 94.8567 21.4441 94.9428 21.5767H95.0621V20.3636H96.1957V28.2188C96.1957 28.875 96.0465 29.4086 95.7482 29.8196C95.4532 30.2339 95.0555 30.5372 94.555 30.7294C94.0579 30.925 93.5044 31.0227 92.8945 31.0227ZM92.8548 26.8267C93.3254 26.8267 93.7231 26.719 94.0479 26.5036C94.3728 26.2881 94.6197 25.9782 94.7887 25.5739C94.9577 25.1695 95.0423 24.6856 95.0423 24.1222C95.0423 23.572 94.9594 23.0864 94.7937 22.6655C94.628 22.2446 94.3827 21.9148 94.0579 21.6761C93.7331 21.4375 93.332 21.3182 92.8548 21.3182C92.3576 21.3182 91.9433 21.4441 91.6119 21.696C91.2837 21.9479 91.0368 22.286 90.8711 22.7102C90.7087 23.1345 90.6275 23.6051 90.6275 24.1222C90.6275 24.6525 90.7103 25.1214 90.8761 25.5291C91.0451 25.9335 91.2937 26.2517 91.6218 26.4837C91.9532 26.7124 92.3642 26.8267 92.8548 26.8267ZM99.5167 23.4062V28H98.3434V20.3636H99.4769V21.5568H99.5763C99.7553 21.169 100.027 20.8575 100.392 20.6222C100.756 20.3835 101.227 20.2642 101.804 20.2642C102.321 20.2642 102.773 20.3703 103.161 20.5824C103.549 20.7912 103.85 21.1094 104.066 21.5369C104.281 21.9612 104.389 22.4981 104.389 23.1477V28H103.216V23.2273C103.216 22.6274 103.06 22.16 102.748 21.8253C102.437 21.4872 102.009 21.3182 101.466 21.3182C101.091 21.3182 100.756 21.3994 100.461 21.5618C100.17 21.7242 99.9393 21.9612 99.7702 22.2727C99.6012 22.5843 99.5167 22.9621 99.5167 23.4062ZM117.311 17.8182H118.544V24.5597C118.544 25.2557 118.38 25.8771 118.052 26.424C117.727 26.9676 117.268 27.3968 116.675 27.7116C116.082 28.0232 115.386 28.179 114.587 28.179C113.788 28.179 113.092 28.0232 112.499 27.7116C111.905 27.3968 111.445 26.9676 111.117 26.424C110.792 25.8771 110.629 25.2557 110.629 24.5597V17.8182H111.862V24.4602C111.862 24.9574 111.972 25.3999 112.191 25.7876C112.409 26.1721 112.721 26.4754 113.125 26.6974C113.533 26.9162 114.02 27.0256 114.587 27.0256C115.154 27.0256 115.641 26.9162 116.048 26.6974C116.456 26.4754 116.768 26.1721 116.983 25.7876C117.202 25.3999 117.311 24.9574 117.311 24.4602V17.8182ZM120.847 30.8636V20.3636H121.981V21.5767H122.12C122.206 21.4441 122.326 21.2751 122.478 21.0696C122.634 20.8608 122.856 20.6752 123.144 20.5128C123.436 20.3471 123.83 20.2642 124.327 20.2642C124.97 20.2642 125.537 20.425 126.028 20.7464C126.518 21.0679 126.901 21.5237 127.176 22.1136C127.451 22.7036 127.589 23.3996 127.589 24.2017C127.589 25.0104 127.451 25.7114 127.176 26.3047C126.901 26.8946 126.52 27.352 126.033 27.6768C125.545 27.9983 124.984 28.1591 124.347 28.1591C123.857 28.1591 123.464 28.0779 123.169 27.9155C122.874 27.7498 122.647 27.5625 122.488 27.3537C122.329 27.1416 122.206 26.9659 122.12 26.8267H122.021V30.8636H120.847ZM122.001 24.1818C122.001 24.7585 122.085 25.2673 122.254 25.7081C122.423 26.1456 122.67 26.4886 122.995 26.7372C123.32 26.9825 123.718 27.1051 124.188 27.1051C124.679 27.1051 125.088 26.9759 125.416 26.7173C125.748 26.4555 125.996 26.1042 126.162 25.6634C126.331 25.2192 126.415 24.7254 126.415 24.1818C126.415 23.6449 126.333 23.161 126.167 22.7301C126.004 22.2959 125.758 21.9529 125.426 21.701C125.098 21.4458 124.685 21.3182 124.188 21.3182C123.711 21.3182 123.31 21.4392 122.985 21.6811C122.66 21.9197 122.415 22.2545 122.249 22.6854C122.084 23.1129 122.001 23.6117 122.001 24.1818ZM135.046 28L132.719 20.3636H133.952L135.603 26.2102H135.683L137.313 20.3636H138.566L140.177 26.1903H140.256L141.907 20.3636H143.14L140.813 28H139.66L137.989 22.1335H137.87L136.2 28H135.046ZM144.691 28V20.3636H145.864V28H144.691ZM145.288 19.0909C145.059 19.0909 144.862 19.013 144.696 18.8572C144.534 18.7015 144.452 18.5142 144.452 18.2955C144.452 18.0767 144.534 17.8894 144.696 17.7337C144.862 17.5779 145.059 17.5 145.288 17.5C145.516 17.5 145.712 17.5779 145.874 17.7337C146.04 17.8894 146.123 18.0767 146.123 18.2955C146.123 18.5142 146.04 18.7015 145.874 18.8572C145.712 19.013 145.516 19.0909 145.288 19.0909ZM151.334 20.3636V21.358H147.377V20.3636H151.334ZM148.53 18.5341H149.704V25.8125C149.704 26.1439 149.752 26.3925 149.848 26.5582C149.947 26.7206 150.073 26.83 150.226 26.8864C150.381 26.9394 150.546 26.9659 150.718 26.9659C150.847 26.9659 150.953 26.9593 151.036 26.946C151.119 26.9295 151.185 26.9162 151.235 26.9062L151.474 27.9602C151.394 27.9901 151.283 28.0199 151.14 28.0497C150.998 28.0829 150.817 28.0994 150.599 28.0994C150.267 28.0994 149.942 28.0282 149.624 27.8857C149.309 27.7431 149.047 27.526 148.839 27.2344C148.633 26.9427 148.53 26.5748 148.53 26.1307V18.5341ZM154.437 23.4062V28H153.263V17.8182H154.437V21.5568H154.536C154.715 21.1624 154.983 20.8492 155.341 20.6172C155.703 20.3819 156.183 20.2642 156.783 20.2642C157.304 20.2642 157.759 20.3686 158.15 20.5774C158.541 20.7829 158.845 21.0994 159.06 21.527C159.279 21.9512 159.388 22.4915 159.388 23.1477V28H158.215V23.2273C158.215 22.6207 158.058 22.1518 157.743 21.8203C157.431 21.4856 156.999 21.3182 156.445 21.3182C156.061 21.3182 155.716 21.3994 155.411 21.5618C155.109 21.7242 154.871 21.9612 154.695 22.2727C154.523 22.5843 154.437 22.9621 154.437 23.4062ZM172.592 21C172.482 20.6652 172.338 20.3653 172.159 20.1001C171.983 19.8317 171.773 19.603 171.528 19.4141C171.286 19.2251 171.011 19.081 170.702 18.9815C170.394 18.8821 170.056 18.8324 169.688 18.8324C169.085 18.8324 168.536 18.9882 168.043 19.2997C167.549 19.6113 167.156 20.0703 166.864 20.6768C166.573 21.2834 166.427 22.0275 166.427 22.9091C166.427 23.7907 166.574 24.5348 166.869 25.1413C167.164 25.7479 167.564 26.2069 168.067 26.5185C168.571 26.83 169.138 26.9858 169.768 26.9858C170.351 26.9858 170.865 26.8615 171.309 26.6129C171.756 26.361 172.104 26.0064 172.353 25.549C172.605 25.0883 172.731 24.5464 172.731 23.9233L173.109 24.0028H170.046V22.9091H173.924V24.0028C173.924 24.8414 173.745 25.5705 173.387 26.1903C173.032 26.8101 172.542 27.2907 171.915 27.6321C171.292 27.9702 170.576 28.1392 169.768 28.1392C168.866 28.1392 168.074 27.9271 167.391 27.5028C166.712 27.0786 166.182 26.4754 165.8 25.6932C165.423 24.911 165.234 23.983 165.234 22.9091C165.234 22.1037 165.341 21.3795 165.557 20.7365C165.776 20.0902 166.084 19.54 166.482 19.0859C166.879 18.6319 167.35 18.2839 167.893 18.0419C168.437 17.8 169.035 17.679 169.688 17.679C170.225 17.679 170.726 17.7602 171.19 17.9226C171.657 18.0817 172.073 18.3087 172.438 18.6037C172.805 18.8954 173.112 19.245 173.357 19.6527C173.603 20.0571 173.772 20.5062 173.864 21H172.592ZM178.979 28.1591C178.289 28.1591 177.685 27.995 177.164 27.6669C176.647 27.3388 176.243 26.8797 175.951 26.2898C175.663 25.6998 175.519 25.0104 175.519 24.2216C175.519 23.4261 175.663 22.7318 175.951 22.1385C176.243 21.5452 176.647 21.0845 177.164 20.7564C177.685 20.4283 178.289 20.2642 178.979 20.2642C179.668 20.2642 180.271 20.4283 180.789 20.7564C181.309 21.0845 181.713 21.5452 182.002 22.1385C182.293 22.7318 182.439 23.4261 182.439 24.2216C182.439 25.0104 182.293 25.6998 182.002 26.2898C181.713 26.8797 181.309 27.3388 180.789 27.6669C180.271 27.995 179.668 28.1591 178.979 28.1591ZM178.979 27.1051C179.503 27.1051 179.933 26.9709 180.271 26.7024C180.61 26.4339 180.86 26.081 181.022 25.6435C181.185 25.206 181.266 24.732 181.266 24.2216C181.266 23.7112 181.185 23.2356 181.022 22.7947C180.86 22.3539 180.61 21.9976 180.271 21.7259C179.933 21.4541 179.503 21.3182 178.979 21.3182C178.455 21.3182 178.024 21.4541 177.686 21.7259C177.348 21.9976 177.098 22.3539 176.936 22.7947C176.773 23.2356 176.692 23.7112 176.692 24.2216C176.692 24.732 176.773 25.206 176.936 25.6435C177.098 26.081 177.348 26.4339 177.686 26.7024C178.024 26.9709 178.455 27.1051 178.979 27.1051ZM187.332 28.1591C186.643 28.1591 186.038 27.995 185.518 27.6669C185.001 27.3388 184.596 26.8797 184.305 26.2898C184.016 25.6998 183.872 25.0104 183.872 24.2216C183.872 23.4261 184.016 22.7318 184.305 22.1385C184.596 21.5452 185.001 21.0845 185.518 20.7564C186.038 20.4283 186.643 20.2642 187.332 20.2642C188.022 20.2642 188.625 20.4283 189.142 20.7564C189.662 21.0845 190.067 21.5452 190.355 22.1385C190.647 22.7318 190.793 23.4261 190.793 24.2216C190.793 25.0104 190.647 25.6998 190.355 26.2898C190.067 26.8797 189.662 27.3388 189.142 27.6669C188.625 27.995 188.022 28.1591 187.332 28.1591ZM187.332 27.1051C187.856 27.1051 188.287 26.9709 188.625 26.7024C188.963 26.4339 189.213 26.081 189.376 25.6435C189.538 25.206 189.619 24.732 189.619 24.2216C189.619 23.7112 189.538 23.2356 189.376 22.7947C189.213 22.3539 188.963 21.9976 188.625 21.7259C188.287 21.4541 187.856 21.3182 187.332 21.3182C186.809 21.3182 186.378 21.4541 186.04 21.7259C185.702 21.9976 185.451 22.3539 185.289 22.7947C185.127 23.2356 185.045 23.7112 185.045 24.2216C185.045 24.732 185.127 25.206 185.289 25.6435C185.451 26.081 185.702 26.4339 186.04 26.7024C186.378 26.9709 186.809 27.1051 187.332 27.1051ZM195.666 31.0227C195.099 31.0227 194.612 30.9498 194.204 30.804C193.797 30.6615 193.457 30.4725 193.185 30.2372C192.917 30.0052 192.703 29.7566 192.544 29.4915L193.479 28.8352C193.585 28.9744 193.719 29.1335 193.881 29.3125C194.044 29.4948 194.266 29.6522 194.547 29.7848C194.832 29.9207 195.205 29.9886 195.666 29.9886C196.282 29.9886 196.791 29.8395 197.192 29.5412C197.593 29.2429 197.794 28.7756 197.794 28.1392V26.5881H197.694C197.608 26.7273 197.486 26.8996 197.327 27.1051C197.171 27.3073 196.945 27.4879 196.65 27.647C196.359 27.8028 195.964 27.8807 195.467 27.8807C194.851 27.8807 194.297 27.7348 193.807 27.4432C193.319 27.1515 192.933 26.7273 192.648 26.1705C192.367 25.6136 192.226 24.9375 192.226 24.142C192.226 23.3598 192.363 22.6787 192.638 22.0987C192.913 21.5154 193.296 21.0646 193.787 20.7464C194.277 20.425 194.844 20.2642 195.487 20.2642C195.984 20.2642 196.379 20.3471 196.67 20.5128C196.965 20.6752 197.191 20.8608 197.346 21.0696C197.506 21.2751 197.628 21.4441 197.714 21.5767H197.834V20.3636H198.967V28.2188C198.967 28.875 198.818 29.4086 198.52 29.8196C198.225 30.2339 197.827 30.5372 197.327 30.7294C196.829 30.925 196.276 31.0227 195.666 31.0227ZM195.626 26.8267C196.097 26.8267 196.495 26.719 196.819 26.5036C197.144 26.2881 197.391 25.9782 197.56 25.5739C197.729 25.1695 197.814 24.6856 197.814 24.1222C197.814 23.572 197.731 23.0864 197.565 22.6655C197.399 22.2446 197.154 21.9148 196.829 21.6761C196.505 21.4375 196.104 21.3182 195.626 21.3182C195.129 21.3182 194.715 21.4441 194.383 21.696C194.055 21.9479 193.808 22.286 193.643 22.7102C193.48 23.1345 193.399 23.6051 193.399 24.1222C193.399 24.6525 193.482 25.1214 193.648 25.5291C193.817 25.9335 194.065 26.2517 194.393 26.4837C194.725 26.7124 195.136 26.8267 195.626 26.8267ZM202.288 17.8182V28H201.115V17.8182H202.288ZM207.639 28.1591C206.903 28.1591 206.268 27.9967 205.735 27.6719C205.204 27.3438 204.795 26.8864 204.507 26.2997C204.222 25.7098 204.079 25.0237 204.079 24.2415C204.079 23.4593 204.222 22.7699 204.507 22.1733C204.795 21.5734 205.196 21.1061 205.71 20.7713C206.227 20.4332 206.83 20.2642 207.52 20.2642C207.917 20.2642 208.31 20.3305 208.698 20.4631C209.086 20.5956 209.439 20.8111 209.757 21.1094C210.075 21.4044 210.328 21.7955 210.517 22.2827C210.706 22.7699 210.801 23.3698 210.801 24.0824V24.5795H204.914V23.5653H209.608C209.608 23.1345 209.521 22.75 209.349 22.4119C209.18 22.0739 208.938 21.8071 208.623 21.6115C208.312 21.416 207.944 21.3182 207.52 21.3182C207.052 21.3182 206.648 21.4342 206.306 21.6662C205.968 21.8949 205.708 22.1932 205.526 22.5611C205.344 22.929 205.252 23.3234 205.252 23.7443V24.4205C205.252 24.9972 205.352 25.486 205.551 25.8871C205.753 26.2848 206.033 26.5881 206.391 26.7969C206.749 27.0024 207.165 27.1051 207.639 27.1051C207.947 27.1051 208.225 27.062 208.474 26.9759C208.726 26.8864 208.943 26.7538 209.125 26.5781C209.308 26.3991 209.449 26.1771 209.548 25.9119L210.681 26.2301C210.562 26.6146 210.362 26.9527 210.08 27.2443C209.798 27.5327 209.45 27.758 209.036 27.9205C208.622 28.0795 208.156 28.1591 207.639 28.1591Z" fill="#424242"/>
<defs>
<clipPath id="clip0_1_103">
<rect width="24" height="24" fill="white" transform="translate(22 14)"/>
</clipPath>
</defs>
</svg>
