<svg width="234" height="52" viewBox="0 0 234 52" fill="none" xmlns="http://www.w3.org/2000/svg">
<rect width="234" height="52" rx="8" fill="#F5FBFF"/>
<rect x="0.5" y="0.5" width="233" height="51" rx="7.5" stroke="#424242" stroke-opacity="0.3"/>
<g clip-path="url(#clip0_1_104)">
<path d="M25 38C31.6274 38 37 32.6274 37 26C37 19.3726 31.6274 14 25 14C18.3726 14 13 19.3726 13 26C13 32.6274 18.3726 38 25 38Z" fill="#3B5998"/>
<path d="M28.0168 26.4697H25.8755V34.3143H22.6314V26.4697H21.0884V23.7128H22.6314V21.9288C22.6314 20.6531 23.2374 18.6553 25.9044 18.6553L28.3075 18.6654V21.3414H26.5639C26.2779 21.3414 25.8758 21.4843 25.8758 22.0929V23.7154H28.3002L28.0168 26.4697Z" fill="white"/>
</g>
<line x1="52.5" y1="14" x2="52.5" y2="36" stroke="#424242" stroke-opacity="0.5"/>
<path d="M74.3002 20.3636C74.2405 19.8598 73.9986 19.4688 73.5743 19.1903C73.1501 18.9119 72.6297 18.7727 72.0132 18.7727C71.5625 18.7727 71.1681 18.8456 70.83 18.9915C70.4952 19.1373 70.2334 19.3378 70.0445 19.593C69.8589 19.8482 69.7661 20.1383 69.7661 20.4631C69.7661 20.7348 69.8307 20.9685 69.96 21.1641C70.0925 21.3563 70.2616 21.517 70.4671 21.6463C70.6726 21.7723 70.888 21.8767 71.1134 21.9595C71.3387 22.0391 71.5459 22.1037 71.7348 22.1534L72.7689 22.4318C73.0341 22.5014 73.329 22.5975 73.6539 22.7202C73.982 22.8428 74.2952 23.0102 74.5935 23.2223C74.8951 23.4311 75.1437 23.6996 75.3392 24.0277C75.5348 24.3558 75.6325 24.7585 75.6325 25.2358C75.6325 25.786 75.4884 26.2831 75.2 26.7273C74.915 27.1714 74.4974 27.5244 73.9472 27.7862C73.4003 28.0481 72.7358 28.179 71.9536 28.179C71.2244 28.179 70.593 28.0613 70.0594 27.826C69.5291 27.5907 69.1115 27.2625 68.8066 26.8416C68.5049 26.4207 68.3343 25.9318 68.2945 25.375H69.5672C69.6003 25.7595 69.7296 26.0777 69.955 26.3295C70.1837 26.5781 70.472 26.7637 70.82 26.8864C71.1714 27.0057 71.5492 27.0653 71.9536 27.0653C72.4242 27.0653 72.8468 26.9891 73.2213 26.8366C73.5959 26.6809 73.8925 26.4654 74.1112 26.1903C74.33 25.9119 74.4394 25.5871 74.4394 25.2159C74.4394 24.8778 74.3449 24.6027 74.156 24.3906C73.9671 24.1785 73.7185 24.0062 73.4102 23.8736C73.102 23.741 72.7689 23.625 72.411 23.5256L71.1581 23.1676C70.3627 22.9389 69.7329 22.6125 69.2689 22.1882C68.8049 21.764 68.5729 21.2088 68.5729 20.5227C68.5729 19.9527 68.727 19.4555 69.0352 19.0312C69.3468 18.6037 69.7644 18.2723 70.2881 18.0369C70.8151 17.7983 71.4034 17.679 72.053 17.679C72.7093 17.679 73.2926 17.7966 73.803 18.032C74.3134 18.264 74.7178 18.5821 75.0161 18.9865C75.3177 19.3909 75.4768 19.8499 75.4933 20.3636H74.3002ZM77.5006 28V20.3636H78.6739V28H77.5006ZM78.0972 19.0909C77.8685 19.0909 77.6713 19.013 77.5056 18.8572C77.3432 18.7015 77.262 18.5142 77.262 18.2955C77.262 18.0767 77.3432 17.8894 77.5056 17.7337C77.6713 17.5779 77.8685 17.5 78.0972 17.5C78.3259 17.5 78.5215 17.5779 78.6839 17.7337C78.8496 17.8894 78.9324 18.0767 78.9324 18.2955C78.9324 18.5142 78.8496 18.7015 78.6839 18.8572C78.5215 19.013 78.3259 19.0909 78.0972 19.0909ZM83.9053 31.0227C83.3385 31.0227 82.8513 30.9498 82.4436 30.804C82.036 30.6615 81.6962 30.4725 81.4244 30.2372C81.156 30.0052 80.9422 29.7566 80.7831 29.4915L81.7178 28.8352C81.8238 28.9744 81.9581 29.1335 82.1205 29.3125C82.2829 29.4948 82.5049 29.6522 82.7867 29.7848C83.0717 29.9207 83.4446 29.9886 83.9053 29.9886C84.5218 29.9886 85.0305 29.8395 85.4316 29.5412C85.8326 29.2429 86.0331 28.7756 86.0331 28.1392V26.5881H85.9337C85.8475 26.7273 85.7249 26.8996 85.5658 27.1051C85.41 27.3073 85.1846 27.4879 84.8896 27.647C84.598 27.8028 84.2036 27.8807 83.7064 27.8807C83.0899 27.8807 82.5364 27.7348 82.0459 27.4432C81.5587 27.1515 81.1726 26.7273 80.8875 26.1705C80.6058 25.6136 80.4649 24.9375 80.4649 24.142C80.4649 23.3598 80.6025 22.6787 80.8776 22.0987C81.1527 21.5154 81.5355 21.0646 82.026 20.7464C82.5165 20.425 83.0833 20.2642 83.7263 20.2642C84.2235 20.2642 84.6179 20.3471 84.9095 20.5128C85.2045 20.6752 85.4299 20.8608 85.5857 21.0696C85.7448 21.2751 85.8674 21.4441 85.9536 21.5767H86.0729V20.3636H87.2064V28.2188C87.2064 28.875 87.0573 29.4086 86.759 29.8196C86.464 30.2339 86.0663 30.5372 85.5658 30.7294C85.0686 30.925 84.5151 31.0227 83.9053 31.0227ZM83.8655 26.8267C84.3361 26.8267 84.7339 26.719 85.0587 26.5036C85.3835 26.2881 85.6304 25.9782 85.7994 25.5739C85.9685 25.1695 86.053 24.6856 86.053 24.1222C86.053 23.572 85.9701 23.0864 85.8044 22.6655C85.6387 22.2446 85.3934 21.9148 85.0686 21.6761C84.7438 21.4375 84.3428 21.3182 83.8655 21.3182C83.3683 21.3182 82.954 21.4441 82.6226 21.696C82.2945 21.9479 82.0476 22.286 81.8818 22.7102C81.7194 23.1345 81.6382 23.6051 81.6382 24.1222C81.6382 24.6525 81.7211 25.1214 81.8868 25.5291C82.0558 25.9335 82.3044 26.2517 82.6325 26.4837C82.964 26.7124 83.375 26.8267 83.8655 26.8267ZM90.5274 23.4062V28H89.3541V20.3636H90.4877V21.5568H90.5871C90.7661 21.169 91.0378 20.8575 91.4024 20.6222C91.767 20.3835 92.2377 20.2642 92.8144 20.2642C93.3314 20.2642 93.7838 20.3703 94.1716 20.5824C94.5594 20.7912 94.861 21.1094 95.0764 21.5369C95.2919 21.9612 95.3996 22.4981 95.3996 23.1477V28H94.2263V23.2273C94.2263 22.6274 94.0705 22.16 93.759 21.8253C93.4474 21.4872 93.0199 21.3182 92.4763 21.3182C92.1018 21.3182 91.767 21.3994 91.472 21.5618C91.1804 21.7242 90.95 21.9612 90.781 22.2727C90.6119 22.5843 90.5274 22.9621 90.5274 23.4062ZM108.322 17.8182H109.555V24.5597C109.555 25.2557 109.391 25.8771 109.063 26.424C108.738 26.9676 108.279 27.3968 107.686 27.7116C107.092 28.0232 106.396 28.179 105.598 28.179C104.799 28.179 104.103 28.0232 103.509 27.7116C102.916 27.3968 102.456 26.9676 102.127 26.424C101.803 25.8771 101.64 25.2557 101.64 24.5597V17.8182H102.873V24.4602C102.873 24.9574 102.983 25.3999 103.201 25.7876C103.42 26.1721 103.732 26.4754 104.136 26.6974C104.544 26.9162 105.031 27.0256 105.598 27.0256C106.164 27.0256 106.652 26.9162 107.059 26.6974C107.467 26.4754 107.778 26.1721 107.994 25.7876C108.213 25.3999 108.322 24.9574 108.322 24.4602V17.8182ZM111.858 30.8636V20.3636H112.992V21.5767H113.131C113.217 21.4441 113.336 21.2751 113.489 21.0696C113.645 20.8608 113.867 20.6752 114.155 20.5128C114.447 20.3471 114.841 20.2642 115.338 20.2642C115.981 20.2642 116.548 20.425 117.038 20.7464C117.529 21.0679 117.912 21.5237 118.187 22.1136C118.462 22.7036 118.6 23.3996 118.6 24.2017C118.6 25.0104 118.462 25.7114 118.187 26.3047C117.912 26.8946 117.531 27.352 117.043 27.6768C116.556 27.9983 115.994 28.1591 115.358 28.1591C114.868 28.1591 114.475 28.0779 114.18 27.9155C113.885 27.7498 113.658 27.5625 113.499 27.3537C113.34 27.1416 113.217 26.9659 113.131 26.8267H113.031V30.8636H111.858ZM113.011 24.1818C113.011 24.7585 113.096 25.2673 113.265 25.7081C113.434 26.1456 113.681 26.4886 114.006 26.7372C114.331 26.9825 114.728 27.1051 115.199 27.1051C115.689 27.1051 116.099 26.9759 116.427 26.7173C116.758 26.4555 117.007 26.1042 117.173 25.6634C117.342 25.2192 117.426 24.7254 117.426 24.1818C117.426 23.6449 117.343 23.161 117.178 22.7301C117.015 22.2959 116.768 21.9529 116.437 21.701C116.109 21.4458 115.696 21.3182 115.199 21.3182C114.722 21.3182 114.321 21.4392 113.996 21.6811C113.671 21.9197 113.426 22.2545 113.26 22.6854C113.094 23.1129 113.011 23.6117 113.011 24.1818ZM126.057 28L123.73 20.3636H124.963L126.614 26.2102H126.693L128.324 20.3636H129.577L131.188 26.1903H131.267L132.918 20.3636H134.151L131.824 28H130.671L129 22.1335H128.881L127.21 28H126.057ZM135.702 28V20.3636H136.875V28H135.702ZM136.298 19.0909C136.07 19.0909 135.872 19.013 135.707 18.8572C135.544 18.7015 135.463 18.5142 135.463 18.2955C135.463 18.0767 135.544 17.8894 135.707 17.7337C135.872 17.5779 136.07 17.5 136.298 17.5C136.527 17.5 136.723 17.5779 136.885 17.7337C137.051 17.8894 137.134 18.0767 137.134 18.2955C137.134 18.5142 137.051 18.7015 136.885 18.8572C136.723 19.013 136.527 19.0909 136.298 19.0909ZM142.345 20.3636V21.358H138.388V20.3636H142.345ZM139.541 18.5341H140.714V25.8125C140.714 26.1439 140.762 26.3925 140.859 26.5582C140.958 26.7206 141.084 26.83 141.236 26.8864C141.392 26.9394 141.556 26.9659 141.729 26.9659C141.858 26.9659 141.964 26.9593 142.047 26.946C142.13 26.9295 142.196 26.9162 142.246 26.9062L142.484 27.9602C142.405 27.9901 142.294 28.0199 142.151 28.0497C142.009 28.0829 141.828 28.0994 141.609 28.0994C141.278 28.0994 140.953 28.0282 140.635 27.8857C140.32 27.7431 140.058 27.526 139.849 27.2344C139.644 26.9427 139.541 26.5748 139.541 26.1307V18.5341ZM145.447 23.4062V28H144.274V17.8182H145.447V21.5568H145.547C145.726 21.1624 145.994 20.8492 146.352 20.6172C146.713 20.3819 147.194 20.2642 147.794 20.2642C148.314 20.2642 148.77 20.3686 149.161 20.5774C149.552 20.7829 149.855 21.0994 150.071 21.527C150.29 21.9512 150.399 22.4915 150.399 23.1477V28H149.226V23.2273C149.226 22.6207 149.068 22.1518 148.753 21.8203C148.442 21.4856 148.009 21.3182 147.456 21.3182C147.071 21.3182 146.727 21.3994 146.422 21.5618C146.12 21.7242 145.882 21.9612 145.706 22.2727C145.534 22.5843 145.447 22.9621 145.447 23.4062ZM156.642 28V17.8182H162.747V18.9119H157.875V22.3523H162.29V23.446H157.875V28H156.642ZM166.947 28.179C166.463 28.179 166.024 28.0878 165.63 27.9055C165.235 27.7199 164.922 27.4531 164.69 27.1051C164.458 26.7538 164.342 26.3295 164.342 25.8324C164.342 25.3949 164.428 25.0402 164.6 24.7685C164.773 24.4934 165.003 24.2779 165.291 24.1222C165.58 23.9664 165.898 23.8504 166.246 23.7741C166.597 23.6946 166.95 23.6316 167.305 23.5852C167.769 23.5256 168.145 23.4808 168.434 23.451C168.725 23.4179 168.937 23.3632 169.07 23.2869C169.206 23.2107 169.274 23.0781 169.274 22.8892V22.8494C169.274 22.3589 169.139 21.9777 168.871 21.706C168.606 21.4342 168.203 21.2983 167.663 21.2983C167.103 21.2983 166.664 21.4209 166.345 21.6662C166.027 21.9115 165.804 22.1733 165.674 22.4517L164.561 22.054C164.759 21.59 165.025 21.2287 165.356 20.9702C165.691 20.7083 166.055 20.526 166.45 20.4233C166.848 20.3172 167.239 20.2642 167.623 20.2642C167.868 20.2642 168.15 20.294 168.468 20.3537C168.79 20.41 169.1 20.5277 169.398 20.7067C169.7 20.8857 169.95 21.1558 170.149 21.517C170.348 21.8783 170.447 22.3622 170.447 22.9688V28H169.274V26.9659H169.214C169.134 27.1316 169.002 27.3089 168.816 27.4979C168.631 27.6868 168.384 27.8475 168.076 27.9801C167.767 28.1127 167.391 28.179 166.947 28.179ZM167.126 27.125C167.59 27.125 167.981 27.0339 168.299 26.8516C168.621 26.6693 168.863 26.4339 169.025 26.1456C169.191 25.8572 169.274 25.554 169.274 25.2358V24.1619C169.224 24.2216 169.115 24.2763 168.946 24.326C168.78 24.3724 168.588 24.4138 168.369 24.4503C168.153 24.4834 167.943 24.5133 167.737 24.5398C167.535 24.563 167.371 24.5829 167.245 24.5994C166.94 24.6392 166.655 24.7038 166.39 24.7933C166.128 24.8795 165.916 25.0104 165.754 25.1861C165.595 25.3584 165.515 25.5937 165.515 25.892C165.515 26.2997 165.666 26.608 165.968 26.8168C166.273 27.0223 166.659 27.125 167.126 27.125ZM175.691 28.1591C174.975 28.1591 174.358 27.9901 173.841 27.652C173.324 27.3139 172.927 26.8482 172.648 26.255C172.37 25.6617 172.231 24.9839 172.231 24.2216C172.231 23.446 172.373 22.7616 172.658 22.1683C172.946 21.5717 173.348 21.1061 173.861 20.7713C174.378 20.4332 174.982 20.2642 175.671 20.2642C176.208 20.2642 176.692 20.3636 177.123 20.5625C177.553 20.7614 177.906 21.0398 178.182 21.3977C178.457 21.7557 178.627 22.1733 178.694 22.6506H177.52C177.431 22.3026 177.232 21.9943 176.924 21.7259C176.619 21.4541 176.208 21.3182 175.691 21.3182C175.233 21.3182 174.832 21.4375 174.488 21.6761C174.146 21.9115 173.879 22.2446 173.687 22.6754C173.498 23.103 173.404 23.6051 173.404 24.1818C173.404 24.7718 173.497 25.2855 173.682 25.723C173.871 26.1605 174.136 26.5002 174.478 26.7422C174.822 26.9841 175.227 27.1051 175.691 27.1051C175.996 27.1051 176.272 27.0521 176.521 26.946C176.77 26.84 176.98 26.6875 177.152 26.4886C177.325 26.2898 177.447 26.0511 177.52 25.7727H178.694C178.627 26.2235 178.463 26.6295 178.201 26.9908C177.943 27.3487 177.6 27.6338 177.172 27.8459C176.748 28.0547 176.254 28.1591 175.691 28.1591ZM183.611 28.1591C182.875 28.1591 182.24 27.9967 181.706 27.6719C181.176 27.3438 180.767 26.8864 180.478 26.2997C180.193 25.7098 180.051 25.0237 180.051 24.2415C180.051 23.4593 180.193 22.7699 180.478 22.1733C180.767 21.5734 181.168 21.1061 181.682 20.7713C182.199 20.4332 182.802 20.2642 183.491 20.2642C183.889 20.2642 184.282 20.3305 184.669 20.4631C185.057 20.5956 185.41 20.8111 185.728 21.1094C186.047 21.4044 186.3 21.7955 186.489 22.2827C186.678 22.7699 186.772 23.3698 186.772 24.0824V24.5795H180.886V23.5653H185.579C185.579 23.1345 185.493 22.75 185.321 22.4119C185.152 22.0739 184.91 21.8071 184.595 21.6115C184.283 21.416 183.915 21.3182 183.491 21.3182C183.024 21.3182 182.62 21.4342 182.278 21.6662C181.94 21.8949 181.68 22.1932 181.498 22.5611C181.315 22.929 181.224 23.3234 181.224 23.7443V24.4205C181.224 24.9972 181.324 25.486 181.522 25.8871C181.725 26.2848 182.005 26.5881 182.363 26.7969C182.721 27.0024 183.137 27.1051 183.611 27.1051C183.919 27.1051 184.197 27.062 184.446 26.9759C184.698 26.8864 184.915 26.7538 185.097 26.5781C185.279 26.3991 185.42 26.1771 185.52 25.9119L186.653 26.2301C186.534 26.6146 186.333 26.9527 186.052 27.2443C185.77 27.5327 185.422 27.758 185.008 27.9205C184.593 28.0795 184.128 28.1591 183.611 28.1591ZM188.716 28V17.8182H189.89V21.5767H189.989C190.075 21.4441 190.195 21.2751 190.347 21.0696C190.503 20.8608 190.725 20.6752 191.013 20.5128C191.305 20.3471 191.699 20.2642 192.196 20.2642C192.839 20.2642 193.406 20.425 193.897 20.7464C194.387 21.0679 194.77 21.5237 195.045 22.1136C195.32 22.7036 195.458 23.3996 195.458 24.2017C195.458 25.0104 195.32 25.7114 195.045 26.3047C194.77 26.8946 194.389 27.352 193.902 27.6768C193.415 27.9983 192.853 28.1591 192.216 28.1591C191.726 28.1591 191.333 28.0779 191.038 27.9155C190.743 27.7498 190.516 27.5625 190.357 27.3537C190.198 27.1416 190.075 26.9659 189.989 26.8267H189.85V28H188.716ZM189.87 24.1818C189.87 24.7585 189.954 25.2673 190.123 25.7081C190.292 26.1456 190.539 26.4886 190.864 26.7372C191.189 26.9825 191.587 27.1051 192.057 27.1051C192.548 27.1051 192.957 26.9759 193.285 26.7173C193.617 26.4555 193.865 26.1042 194.031 25.6634C194.2 25.2192 194.285 24.7254 194.285 24.1818C194.285 23.6449 194.202 23.161 194.036 22.7301C193.874 22.2959 193.627 21.9529 193.295 21.701C192.967 21.4458 192.554 21.3182 192.057 21.3182C191.58 21.3182 191.179 21.4392 190.854 21.6811C190.529 21.9197 190.284 22.2545 190.118 22.6854C189.953 23.1129 189.87 23.6117 189.87 24.1818ZM200.355 28.1591C199.665 28.1591 199.061 27.995 198.54 27.6669C198.023 27.3388 197.619 26.8797 197.327 26.2898C197.039 25.6998 196.895 25.0104 196.895 24.2216C196.895 23.4261 197.039 22.7318 197.327 22.1385C197.619 21.5452 198.023 21.0845 198.54 20.7564C199.061 20.4283 199.665 20.2642 200.355 20.2642C201.044 20.2642 201.647 20.4283 202.165 20.7564C202.685 21.0845 203.089 21.5452 203.378 22.1385C203.669 22.7318 203.815 23.4261 203.815 24.2216C203.815 25.0104 203.669 25.6998 203.378 26.2898C203.089 26.8797 202.685 27.3388 202.165 27.6669C201.647 27.995 201.044 28.1591 200.355 28.1591ZM200.355 27.1051C200.879 27.1051 201.309 26.9709 201.647 26.7024C201.986 26.4339 202.236 26.081 202.398 25.6435C202.561 25.206 202.642 24.732 202.642 24.2216C202.642 23.7112 202.561 23.2356 202.398 22.7947C202.236 22.3539 201.986 21.9976 201.647 21.7259C201.309 21.4541 200.879 21.3182 200.355 21.3182C199.831 21.3182 199.4 21.4541 199.062 21.7259C198.724 21.9976 198.474 22.3539 198.312 22.7947C198.149 23.2356 198.068 23.7112 198.068 24.2216C198.068 24.732 198.149 25.206 198.312 25.6435C198.474 26.081 198.724 26.4339 199.062 26.7024C199.4 26.9709 199.831 27.1051 200.355 27.1051ZM208.708 28.1591C208.019 28.1591 207.414 27.995 206.894 27.6669C206.377 27.3388 205.972 26.8797 205.681 26.2898C205.392 25.6998 205.248 25.0104 205.248 24.2216C205.248 23.4261 205.392 22.7318 205.681 22.1385C205.972 21.5452 206.377 21.0845 206.894 20.7564C207.414 20.4283 208.019 20.2642 208.708 20.2642C209.398 20.2642 210.001 20.4283 210.518 20.7564C211.038 21.0845 211.443 21.5452 211.731 22.1385C212.023 22.7318 212.169 23.4261 212.169 24.2216C212.169 25.0104 212.023 25.6998 211.731 26.2898C211.443 26.8797 211.038 27.3388 210.518 27.6669C210.001 27.995 209.398 28.1591 208.708 28.1591ZM208.708 27.1051C209.232 27.1051 209.663 26.9709 210.001 26.7024C210.339 26.4339 210.589 26.081 210.752 25.6435C210.914 25.206 210.995 24.732 210.995 24.2216C210.995 23.7112 210.914 23.2356 210.752 22.7947C210.589 22.3539 210.339 21.9976 210.001 21.7259C209.663 21.4541 209.232 21.3182 208.708 21.3182C208.185 21.3182 207.754 21.4541 207.416 21.7259C207.078 21.9976 206.827 22.3539 206.665 22.7947C206.503 23.2356 206.421 23.7112 206.421 24.2216C206.421 24.732 206.503 25.206 206.665 25.6435C206.827 26.081 207.078 26.4339 207.416 26.7024C207.754 26.9709 208.185 27.1051 208.708 27.1051ZM215.053 25.2159L215.033 23.7642H215.272L218.613 20.3636H220.065L216.505 23.9631H216.406L215.053 25.2159ZM213.96 28V17.8182H215.133V28H213.96ZM218.812 28L215.829 24.2216L216.664 23.4062L220.303 28H218.812Z" fill="#424242"/>
<defs>
<clipPath id="clip0_1_104">
<rect width="24" height="24" fill="white" transform="translate(13 14)"/>
</clipPath>
</defs>
</svg>
